<svg xmlns="http://www.w3.org/2000/svg" viewBox="0 0 1651.9 320.6"><path d="M175.7 0C322.4 0 329 25.1 351.5 97.1H0C22.5 25.1 29 0 175.7 0zm175.8 196.1C329 268 258.9 320.5 175.8 320.5 92.7 320.6 22.5 268.1 0 196.1h351.5zM293 114.2c8.1 0 15 3.3 20.8 9.8 5.8 6.6 8.7 14.4 8.7 23.6 0 9.3-2.9 17.2-8.7 23.7-5.8 6.5-12.9 9.8-21.3 9.8-8.3 0-15.4-3.3-21.2-9.8-5.9-6.5-8.8-14.4-8.8-23.7 0-9.3 2.9-17.2 8.8-23.7 5.9-6.4 13.1-9.7 21.7-9.7zm-.5 18.9c-3.5 0-6.5 1.4-8.9 4.3-2.5 2.9-3.7 6.3-3.7 10.3s1.2 7.5 3.7 10.3c2.5 2.9 5.4 4.3 8.9 4.3s6.5-1.4 8.9-4.3c2.4-2.8 3.7-6.3 3.7-10.4 0-4.1-1.2-7.5-3.7-10.4-2.4-2.7-5.4-4.1-8.9-4.1z" fill-rule="evenodd" clip-rule="evenodd" fill="#fff"/></svg>