<svg xmlns="http://www.w3.org/2000/svg" viewBox="0 0 1651.9 320.6"><path d="M438.6 267.9V128c0-24.5 6.6-44.1 19.8-58.8 13.1-14.7 30.7-22.1 52.6-22.1 21.8 0 38.5 7.2 50.1 21.4s17.3 34.8 17.3 61.6v137.7H521V130.2c0-12.9-4.2-19.4-12.7-19.4-8.2 0-12.3 6.5-12.3 19.4v137.7h-57.4zM670.8 52.3v215.6h-57.4V52.3h57.4zm34.6 215.6V128c0-24.5 6.6-44.1 19.8-58.8 13.1-14.7 30.7-22.1 52.6-22.1 21.8 0 38.5 7.2 50.1 21.4 11.5 14.3 17.3 34.8 17.3 61.6v137.7h-57.4V130.2c0-12.9-4.2-19.4-12.7-19.4-8.2 0-12.3 6.5-12.3 19.4v137.7h-57.4zM935.3 52.3v145.3c0 21.9-5.6 40-16.7 54.3-11.1 14.3-25.2 21.4-42.3 21.4-5 0-10.8-1.2-17.5-3.8v-62c2.9 1.5 5.4 2.2 7.8 2.2 7.6 0 11.4-6.8 11.4-20.5V52.3h57.3zm103 107.3v56.9h-16.5v51.4h-57.4V130.8c0-26.4 6.5-47 19.5-61.7 13-14.7 31.3-22 54.8-22 22.7 0 39.5 6.6 50.4 19.9 10.9 13.3 16.3 33.8 16.3 61.5v139.3H1048v-135c0-8.3-.9-14-2.7-17.2-1.8-3.2-5.1-4.8-9.8-4.8-9.1 0-13.6 7.3-13.6 22v26.8h16.4zM1140 52.3h70.1c41.6 0 62.4 18.3 62.4 54.8 0 18.1-7.1 33.1-21.4 45.1 20.6 10 30.9 27.8 30.9 53.5 0 19.7-6.1 35.4-18.3 47.1-5.9 5.5-12.3 9.4-19.1 11.6-6.8 2.2-15.9 3.3-27.4 3.3h-10.9v-55.3h9.8c5.8 0 9.9-.8 12.2-2.5 2.4-1.6 3.5-4.5 3.5-8.7 0-7-4.8-10.5-14.4-10.5h-11.1v-57.4c10.6 0 15.9-4.1 15.9-12.2 0-7.5-4.8-11.2-14.4-11.2h-10.5v157.7H1140V52.3zm257.1-5.1c27.4 0 50.8 11.1 70.4 33.3 19.6 22.2 29.4 48.8 29.4 79.7 0 31.5-9.9 58.2-29.6 80.2-19.7 22-43.7 33-71.9 33-28 0-51.9-11-71.8-33.1-19.8-22.1-29.7-48.8-29.7-80.1 0-31.6 10-58.3 29.9-80.1 20-22 44.5-32.9 73.3-32.9zm-1.7 63.6c-11.8 0-21.8 4.8-30.2 14.5s-12.5 21.3-12.5 35 4.2 25.3 12.5 35c8.4 9.6 18.4 14.5 30.1 14.5 11.9 0 22-4.8 30.3-14.4 8.3-9.6 12.4-21.3 12.4-35s-4.1-25.4-12.4-35c-8.2-9.8-18.3-14.6-30.2-14.6zm212.7 3.6v153.5h-57.4V114.4h-44.1v-62h145.3v62h-43.8z"/><path d="M175.7 0C322.4 0 329 25.1 351.5 97.1H0C22.5 25.1 29 0 175.7 0zm175.8 196.1C329 268 258.9 320.5 175.8 320.5 92.7 320.6 22.5 268.1 0 196.1h351.5zM293 114.2c8.1 0 15 3.3 20.8 9.8 5.8 6.6 8.7 14.4 8.7 23.6 0 9.3-2.9 17.2-8.7 23.7-5.8 6.5-12.9 9.8-21.3 9.8-8.3 0-15.4-3.3-21.2-9.8-5.9-6.5-8.8-14.4-8.8-23.7 0-9.3 2.9-17.2 8.8-23.7 5.9-6.4 13.1-9.7 21.7-9.7zm-.5 18.9c-3.5 0-6.5 1.4-8.9 4.3-2.5 2.9-3.7 6.3-3.7 10.3s1.2 7.5 3.7 10.3c2.5 2.9 5.4 4.3 8.9 4.3s6.5-1.4 8.9-4.3c2.4-2.8 3.7-6.3 3.7-10.4 0-4.1-1.2-7.5-3.7-10.4-2.4-2.7-5.4-4.1-8.9-4.1z" fill-rule="evenodd" clip-rule="evenodd"/></svg>