<?xml version="1.0" encoding="utf-8"?>
<!-- Generator: Adobe Illustrator 24.1.1, SVG Export Plug-In . SVG Version: 6.00 Build 0)  -->
<svg version="1.1" id="Capa_1" xmlns="http://www.w3.org/2000/svg" xmlns:xlink="http://www.w3.org/1999/xlink" x="0px" y="0px"
	 viewBox="0 0 1651.9 320.6" style="enable-background:new 0 0 1651.9 320.6;" xml:space="preserve">
<style type="text/css">
	.st0{fill:#FFFFFF;}
	.st1{fill-rule:evenodd;clip-rule:evenodd;fill:#FFFFFF;}
</style>
<g id="Capa_x0020_1">
	<path class="st0" d="M438.6,267.9V128c0-24.5,6.6-44.1,19.8-58.8c13.1-14.7,30.7-22.1,52.6-22.1c21.8,0,38.5,7.2,50.1,21.4
		s17.3,34.8,17.3,61.6v137.7h-57.4V130.2c0-12.9-4.2-19.4-12.7-19.4c-8.2,0-12.3,6.5-12.3,19.4v137.7H438.6L438.6,267.9z
		 M670.8,52.3v215.6h-57.4V52.3H670.8z M705.4,267.9V128c0-24.5,6.6-44.1,19.8-58.8c13.1-14.7,30.7-22.1,52.6-22.1
		c21.8,0,38.5,7.2,50.1,21.4c11.5,14.3,17.3,34.8,17.3,61.6v137.7h-57.4V130.2c0-12.9-4.2-19.4-12.7-19.4c-8.2,0-12.3,6.5-12.3,19.4
		v137.7H705.4L705.4,267.9z M935.3,52.3v145.3c0,21.9-5.6,40-16.7,54.3c-11.1,14.3-25.2,21.4-42.3,21.4c-5,0-10.8-1.2-17.5-3.8v-62
		c2.9,1.5,5.4,2.2,7.8,2.2c7.6,0,11.4-6.8,11.4-20.5V52.3L935.3,52.3L935.3,52.3z M1038.3,159.6v56.9h-16.5v51.4h-57.4V130.8
		c0-26.4,6.5-47,19.5-61.7c13-14.7,31.3-22,54.8-22c22.7,0,39.5,6.6,50.4,19.9c10.9,13.3,16.3,33.8,16.3,61.5v139.3h-57.4v-135
		c0-8.3-0.9-14-2.7-17.2c-1.8-3.2-5.1-4.8-9.8-4.8c-9.1,0-13.6,7.3-13.6,22v26.8L1038.3,159.6L1038.3,159.6z M1140,52.3h70.1
		c41.6,0,62.4,18.3,62.4,54.8c0,18.1-7.1,33.1-21.4,45.1c20.6,10,30.9,27.8,30.9,53.5c0,19.7-6.1,35.4-18.3,47.1
		c-5.9,5.5-12.3,9.4-19.1,11.6c-6.8,2.2-15.9,3.3-27.4,3.3h-10.9v-55.3h9.8c5.8,0,9.9-0.8,12.2-2.5c2.4-1.6,3.5-4.5,3.5-8.7
		c0-7-4.8-10.5-14.4-10.5h-11.1v-57.4c10.6,0,15.9-4.1,15.9-12.2c0-7.5-4.8-11.2-14.4-11.2h-10.5v157.7H1140L1140,52.3L1140,52.3z
		 M1397.1,47.2c27.4,0,50.8,11.1,70.4,33.3c19.6,22.2,29.4,48.8,29.4,79.7c0,31.5-9.9,58.2-29.6,80.2c-19.7,22-43.7,33-71.9,33
		c-28,0-51.9-11-71.8-33.1c-19.8-22.1-29.7-48.8-29.7-80.1c0-31.6,10-58.3,29.9-80.1C1343.8,58.1,1368.3,47.2,1397.1,47.2z
		 M1395.4,110.8c-11.8,0-21.8,4.8-30.2,14.5s-12.5,21.3-12.5,35s4.2,25.3,12.5,35c8.4,9.6,18.4,14.5,30.1,14.5
		c11.9,0,22-4.8,30.3-14.4c8.3-9.6,12.4-21.3,12.4-35c0-13.7-4.1-25.4-12.4-35C1417.4,115.6,1407.3,110.8,1395.4,110.8L1395.4,110.8
		z M1608.1,114.4v153.5h-57.4V114.4h-44.1v-62h145.3v62H1608.1L1608.1,114.4z"/>
	<path class="st1" d="M175.7,0C322.4,0,329,25.1,351.5,97.1H0C22.5,25.1,29,0,175.7,0L175.7,0z M351.5,196.1
		c-22.5,71.9-92.6,124.4-175.7,124.4C92.7,320.6,22.5,268.1,0,196.1H351.5L351.5,196.1z M293,114.2c8.1,0,15,3.3,20.8,9.8
		c5.8,6.6,8.7,14.4,8.7,23.6c0,9.3-2.9,17.2-8.7,23.7c-5.8,6.5-12.9,9.8-21.3,9.8c-8.3,0-15.4-3.3-21.2-9.8
		c-5.9-6.5-8.8-14.4-8.8-23.7c0-9.3,2.9-17.2,8.8-23.7C277.2,117.5,284.4,114.2,293,114.2L293,114.2z M292.5,133.1
		c-3.5,0-6.5,1.4-8.9,4.3c-2.5,2.9-3.7,6.3-3.7,10.3s1.2,7.5,3.7,10.3c2.5,2.9,5.4,4.3,8.9,4.3c3.5,0,6.5-1.4,8.9-4.3
		c2.4-2.8,3.7-6.3,3.7-10.4c0-4.1-1.2-7.5-3.7-10.4C299,134.5,296,133.1,292.5,133.1L292.5,133.1z"/>
</g>
</svg>
