<?xml version="1.0" encoding="utf-8"?>
<!-- Generator: Adobe Illustrator 24.1.1, SVG Export Plug-In . SVG Version: 6.00 Build 0)  -->
<svg version="1.1" id="Capa_1" xmlns="http://www.w3.org/2000/svg" xmlns:xlink="http://www.w3.org/1999/xlink" x="0px" y="0px"
	 viewBox="0 0 1651.9 320.6" style="enable-background:new 0 0 1651.9 320.6;" xml:space="preserve">
<style type="text/css">
	.st0{fill-rule:evenodd;clip-rule:evenodd;fill:#FFFFFF;}
</style>
<g id="Capa_x0020_1">
	<path class="st0" d="M175.7,0C322.4,0,329,25.1,351.5,97.1H0C22.5,25.1,29,0,175.7,0L175.7,0z M351.5,196.1
		c-22.5,71.9-92.6,124.4-175.7,124.4C92.7,320.6,22.5,268.1,0,196.1H351.5L351.5,196.1z M293,114.2c8.1,0,15,3.3,20.8,9.8
		c5.8,6.6,8.7,14.4,8.7,23.6c0,9.3-2.9,17.2-8.7,23.7c-5.8,6.5-12.9,9.8-21.3,9.8c-8.3,0-15.4-3.3-21.2-9.8
		c-5.9-6.5-8.8-14.4-8.8-23.7c0-9.3,2.9-17.2,8.8-23.7C277.2,117.5,284.4,114.2,293,114.2L293,114.2z M292.5,133.1
		c-3.5,0-6.5,1.4-8.9,4.3c-2.5,2.9-3.7,6.3-3.7,10.3s1.2,7.5,3.7,10.3c2.5,2.9,5.4,4.3,8.9,4.3c3.5,0,6.5-1.4,8.9-4.3
		c2.4-2.8,3.7-6.3,3.7-10.4c0-4.1-1.2-7.5-3.7-10.4C299,134.5,296,133.1,292.5,133.1L292.5,133.1z"/>
</g>
</svg>
